<svg width="111" height="99" viewBox="0 0 111 99" fill="none" xmlns="http://www.w3.org/2000/svg">
<path d="M50.7767 74.6194H39.6988C38.5128 73.59 36.9225 72.0188 34.928 69.9058C30.4536 73.6983 25.4134 75.5946 19.807 75.5946C14.7397 75.5946 10.5619 74.267 7.27353 71.6125C4.03909 68.9035 2.42188 65.0839 2.42188 60.1536C2.42188 56.3611 3.44612 53.2729 5.49459 50.889C7.59698 48.4509 10.481 46.2567 14.1467 44.3062C11.613 39.7552 10.3463 35.8001 10.3463 32.441C10.3463 28.7568 11.7209 25.6957 14.4702 23.2576C17.2733 20.8196 20.7773 19.6005 24.9821 19.6005C28.8095 19.6005 31.99 20.6029 34.5237 22.6075C37.0573 24.6121 38.3241 27.321 38.3241 30.7343C38.3241 32.6848 37.9737 34.4456 37.2729 36.0168C36.5722 37.588 35.467 38.9966 33.9576 40.2428C32.5021 41.4347 31.1275 42.4099 29.8337 43.1684C28.5938 43.8727 26.9227 44.7397 24.8204 45.769C26.3837 47.9362 28.1626 50.1575 30.1572 52.4331C32.1517 54.8711 33.9307 56.957 35.494 58.6908C37.8659 54.9524 39.6449 51.1869 40.8308 47.3944L47.7849 50.5639C45.2512 56.1443 42.7445 60.6141 40.2648 63.9732C43.2297 67.1698 46.7337 70.7185 50.7767 74.6194ZM20.8582 68.7681C24.0926 68.7681 27.1923 67.4949 30.1572 64.9484C26.761 61.2642 24.5508 58.772 23.5266 57.4717C21.2625 54.7086 19.2679 52.108 17.5429 49.6699C13.4998 52.3247 11.4783 55.5754 11.4783 59.4222C11.4783 62.2937 12.3948 64.5692 14.2276 66.2487C16.0604 67.9283 18.2706 68.7681 20.8582 68.7681ZM18.9175 32.6035C18.9175 34.9332 19.807 37.6693 21.5859 40.8116C24.6048 39.403 26.8958 37.9672 28.4591 36.5044C30.0224 35.0416 30.8041 33.2537 30.8041 31.1407C30.8041 29.5153 30.2919 28.2421 29.2677 27.321C28.2435 26.4 26.9497 25.9395 25.3864 25.9395C23.5536 25.9395 22.0172 26.5625 20.7773 27.8087C19.5374 29.0548 18.9175 30.6531 18.9175 32.6035Z" fill="#FE66B8"/>
<path d="M24.8767 46.7575C22.7008 46.7575 20.9601 46.131 19.6545 44.878L21.26 42.5907C22.295 43.6309 23.5476 44.151 25.0178 44.151C25.5353 44.151 25.9411 44.0624 26.2352 43.8851C26.541 43.6959 26.6939 43.4595 26.6939 43.1758C26.6939 42.9276 26.5292 42.7266 26.1999 42.573C25.8705 42.4075 25.4589 42.2893 24.9649 42.2183C24.4709 42.1356 23.9358 42.0115 23.3594 41.846C22.7831 41.6687 22.248 41.4677 21.754 41.2431C21.26 41.0067 20.8483 40.6343 20.519 40.126C20.1897 39.6177 20.025 39.009 20.025 38.2997C20.025 37.2595 20.4426 36.3729 21.2776 35.64C22.1245 34.9071 23.2712 34.5407 24.7179 34.5407C26.635 34.5407 28.2287 35.0903 29.499 36.1897L27.8406 38.3706C26.8526 37.555 25.7059 37.1472 24.4003 37.1472C23.5535 37.1472 23.1301 37.4309 23.1301 37.9983C23.1301 38.2229 23.2948 38.4179 23.6241 38.5834C23.9534 38.7371 24.3651 38.8553 24.859 38.938C25.353 39.0208 25.8823 39.1508 26.4469 39.3281C27.0232 39.4936 27.5583 39.6946 28.0523 39.931C28.5463 40.1674 28.958 40.5338 29.2873 41.0303C29.6166 41.5268 29.7813 42.1178 29.7813 42.8035C29.7813 44.0092 29.352 44.9726 28.4934 45.6937C27.6348 46.4029 26.4292 46.7575 24.8767 46.7575ZM39.5983 46.5448H36.8814V45.5164C36.1522 46.3438 35.1701 46.7575 33.9351 46.7575C32.9942 46.7575 32.2885 46.5211 31.818 46.0483C31.3593 45.5636 31.13 44.9076 31.13 44.0801V37.9805H33.8469V42.963C33.8469 43.8851 34.3173 44.3461 35.2583 44.3461C35.9052 44.3461 36.4462 44.0683 36.8814 43.5127V37.9805H39.5983V46.5448ZM55.0141 46.5448H52.3149V41.3318C52.3149 40.5634 51.9385 40.1792 51.1857 40.1792C50.5741 40.1792 50.0625 40.457 49.6509 41.0126V46.5448H46.9339V41.3318C46.9339 40.5634 46.5576 40.1792 45.8048 40.1792C45.2403 40.1792 44.7345 40.457 44.2876 41.0126V46.5448H41.5706V37.9805H44.2876V39.0267C44.511 38.7312 44.8815 38.4475 45.399 38.1756C45.9165 37.9037 46.4811 37.7678 47.0927 37.7678C48.3512 37.7678 49.1569 38.2761 49.5097 39.2927C49.7802 38.8789 50.1801 38.5243 50.7094 38.2288C51.2504 37.9214 51.8326 37.7678 52.456 37.7678C53.2675 37.7678 53.8968 37.9864 54.3437 38.4238C54.7907 38.8494 55.0141 39.4877 55.0141 40.3388V46.5448ZM70.4512 46.5448H67.7519V41.3318C67.7519 40.5634 67.3756 40.1792 66.6228 40.1792C66.0112 40.1792 65.4996 40.457 65.0879 41.0126V46.5448H62.371V41.3318C62.371 40.5634 61.9946 40.1792 61.2419 40.1792C60.6773 40.1792 60.1716 40.457 59.7247 41.0126V46.5448H57.0077V37.9805H59.7247V39.0267C59.9481 38.7312 60.3186 38.4475 60.8361 38.1756C61.3536 37.9037 61.9182 37.7678 62.5298 37.7678C63.7883 37.7678 64.594 38.2761 64.9468 39.2927C65.2173 38.8789 65.6172 38.5243 66.1465 38.2288C66.6875 37.9214 67.2697 37.7678 67.8931 37.7678C68.7046 37.7678 69.3339 37.9864 69.7808 38.4238C70.2278 38.8494 70.4512 39.4877 70.4512 40.3388V46.5448ZM80.1898 46.5448H77.4729V45.6937C77.2024 46.0128 76.826 46.2729 76.3438 46.4738C75.8733 46.663 75.3676 46.7575 74.8265 46.7575C74.0856 46.7575 73.4093 46.5152 72.7977 46.0306C72.1978 45.5341 71.8979 44.8367 71.8979 43.9383C71.8979 42.9926 72.1919 42.3011 72.78 41.8637C73.3681 41.4145 74.0503 41.1899 74.8265 41.1899C76.0615 41.1899 76.9436 41.5209 77.4729 42.1829V41.1544C77.4729 40.7762 77.32 40.4747 77.0142 40.2501C76.7084 40.0255 76.285 39.9132 75.7439 39.9132C74.8383 39.9132 74.0326 40.2147 73.3269 40.8175L72.3566 39.0976C73.3916 38.211 74.6795 37.7678 76.2203 37.7678C76.7613 37.7678 77.2553 37.8269 77.7023 37.9451C78.161 38.0515 78.5785 38.2288 78.9549 38.477C79.343 38.7253 79.6429 39.0799 79.8546 39.5409C80.0781 40.0019 80.1898 40.5516 80.1898 41.1899V46.5448ZM75.9557 44.9667C76.6849 44.9667 77.1906 44.7598 77.4729 44.3461V43.5836C77.1789 43.1817 76.6731 42.9808 75.9557 42.9808C75.5675 42.9808 75.2441 43.0694 74.9853 43.2467C74.7266 43.4122 74.5972 43.6546 74.5972 43.9737C74.5972 44.2929 74.7266 44.5411 74.9853 44.7184C75.2441 44.8839 75.5675 44.9667 75.9557 44.9667ZM84.879 46.5448H82.1621V37.9805H84.879V39.0267C85.1731 38.6721 85.5671 38.3706 86.0611 38.1224C86.555 37.8741 87.049 37.75 87.543 37.75V40.3743C87.3313 40.327 87.1078 40.3033 86.8726 40.3033C86.4962 40.3033 86.1081 40.3802 85.7082 40.5338C85.3201 40.6757 85.0437 40.8589 84.879 41.0835V46.5448ZM91.2303 36.7571C90.9362 37.0644 90.5716 37.2181 90.1365 37.2181C89.7013 37.2181 89.3308 37.0644 89.025 36.7571C88.7309 36.4497 88.5839 36.0774 88.5839 35.64C88.5839 35.2026 88.7309 34.8362 89.025 34.5407C89.3308 34.2333 89.7013 34.0796 90.1365 34.0796C90.5716 34.0796 90.9362 34.2333 91.2303 34.5407C91.5361 34.8362 91.689 35.2026 91.689 35.64C91.689 36.0774 91.5361 36.4497 91.2303 36.7571ZM91.4949 46.5448H88.778V37.9805H91.4949V46.5448ZM100.327 46.5448H93.1467V44.5411L96.5693 40.3565H93.1467V37.9805H100.257V39.9132L96.7634 44.1865H100.327V46.5448ZM106.085 46.7575C104.744 46.7575 103.633 46.3497 102.751 45.5341C101.869 44.7066 101.428 43.6132 101.428 42.2538C101.428 40.989 101.851 39.9251 102.698 39.0621C103.556 38.1992 104.644 37.7678 105.962 37.7678C107.244 37.7678 108.29 38.2051 109.102 39.0799C109.914 39.9428 110.319 41.0953 110.319 42.5375V43.1226H104.25C104.333 43.5482 104.562 43.9087 104.938 44.2042C105.315 44.4998 105.797 44.6475 106.385 44.6475C106.714 44.6475 107.091 44.5825 107.514 44.4525C107.949 44.3106 108.279 44.1333 108.502 43.9205L109.649 45.6227C109.237 45.9892 108.708 46.2729 108.061 46.4738C107.426 46.663 106.767 46.7575 106.085 46.7575ZM107.726 41.3495C107.679 40.9712 107.514 40.6343 107.232 40.3388C106.95 40.0315 106.526 39.8778 105.962 39.8778C105.432 39.8778 105.027 40.0255 104.744 40.3211C104.462 40.6166 104.286 40.9594 104.215 41.3495H107.726ZM46.4799 68.1829C44.6569 68.1829 43.1396 67.6155 41.9282 66.4807C40.7168 65.3341 40.111 63.8624 40.111 62.0656C40.111 60.257 40.7109 58.7853 41.9106 57.6505C43.122 56.5157 44.6451 55.9483 46.4799 55.9483C48.844 55.9483 50.5553 57.0063 51.6139 59.1222L49.0028 60.3634C48.8028 59.8787 48.4676 59.4709 47.9972 59.1399C47.5385 58.8089 47.0327 58.6435 46.4799 58.6435C45.5272 58.6435 44.7392 58.9744 44.1159 59.6364C43.5042 60.2866 43.1984 61.0963 43.1984 62.0656C43.1984 63.0349 43.5042 63.8506 44.1159 64.5125C44.7392 65.1627 45.5272 65.4878 46.4799 65.4878C47.0327 65.4878 47.5385 65.3223 47.9972 64.9913C48.4676 64.6603 48.8028 64.2525 49.0028 63.7678L51.6139 65.009C51.1669 65.9074 50.52 66.6639 49.6732 67.2786C48.8381 67.8815 47.7737 68.1829 46.4799 68.1829ZM61.3592 67.9701H58.6423V62.9876C58.6423 62.0656 58.1718 61.6046 57.2309 61.6046C56.584 61.6046 56.0371 61.8824 55.5902 62.438V67.9701H52.8732V56.1433H55.5902V60.4521C56.3076 59.6128 57.2897 59.1931 58.5364 59.1931C59.4774 59.1931 60.1831 59.4355 60.6535 59.9201C61.124 60.3929 61.3592 61.0431 61.3592 61.8706V67.9701ZM67.4238 68.1829C66.083 68.1829 64.9715 67.7751 64.0894 66.9595C63.2073 66.132 62.7662 65.0386 62.7662 63.6792C62.7662 62.4143 63.1896 61.3504 64.0365 60.4875C64.8951 59.6246 65.983 59.1931 67.3003 59.1931C68.5823 59.1931 69.6291 59.6305 70.4406 60.5053C71.2522 61.3682 71.658 62.5207 71.658 63.9629V64.548H65.589C65.6713 64.9735 65.9007 65.3341 66.277 65.6296C66.6534 65.9251 67.1356 66.0729 67.7237 66.0729C68.053 66.0729 68.4294 66.0079 68.8528 65.8778C69.288 65.736 69.6173 65.5587 69.8408 65.3459L70.9876 67.0481C70.5759 67.4146 70.0466 67.6983 69.3997 67.8992C68.7646 68.0884 68.106 68.1829 67.4238 68.1829ZM69.0645 62.7749C69.0175 62.3966 68.8528 62.0597 68.5706 61.7642C68.2883 61.4568 67.8649 61.3032 67.3003 61.3032C66.771 61.3032 66.3653 61.4509 66.083 61.7464C65.8007 62.042 65.6243 62.3848 65.5537 62.7749H69.0645ZM77.0892 68.1829C75.7484 68.1829 74.6369 67.7692 73.7548 66.9417C72.8726 66.1024 72.4316 65.0149 72.4316 63.6792C72.4316 62.3552 72.8726 61.2795 73.7548 60.4521C74.6369 59.6128 75.7484 59.1931 77.0892 59.1931C77.936 59.1931 78.6535 59.3468 79.2415 59.6541C79.8414 59.9615 80.2883 60.3338 80.5824 60.7712L78.8181 62.4202C78.4535 61.8765 77.9184 61.6046 77.2127 61.6046C76.6364 61.6046 76.16 61.7937 75.7836 62.172C75.4073 62.5384 75.2191 63.0408 75.2191 63.6792C75.2191 64.3175 75.4073 64.8258 75.7836 65.2041C76.16 65.5823 76.6364 65.7715 77.2127 65.7715C77.8948 65.7715 78.43 65.4937 78.8181 64.9381L80.5824 66.6048C80.2883 67.0422 79.8414 67.4146 79.2415 67.7219C78.6535 68.0293 77.936 68.1829 77.0892 68.1829ZM90.568 67.9701H87.2159L85.3458 64.9381L84.5343 65.9133V67.9701H81.8173V56.1433H84.5343V62.8281L87.1277 59.4059H90.4092L87.2688 63.3068L90.568 67.9701Z" fill="white"/>
</svg>
