<svg width="111" height="99" viewBox="0 0 111 99" fill="none" xmlns="http://www.w3.org/2000/svg">
<path d="M50.7767 74.6194H39.6988C38.5128 73.59 36.9225 72.0188 34.928 69.9058C30.4536 73.6983 25.4134 75.5946 19.807 75.5946C14.7397 75.5946 10.5619 74.267 7.27353 71.6125C4.03909 68.9035 2.42188 65.0839 2.42188 60.1536C2.42188 56.3611 3.44612 53.2729 5.49459 50.889C7.59698 48.4509 10.481 46.2566 14.1467 44.3062C11.613 39.7552 10.3463 35.8001 10.3463 32.441C10.3463 28.7568 11.7209 25.6957 14.4702 23.2576C17.2733 20.8196 20.7773 19.6005 24.9821 19.6005C28.8095 19.6005 31.99 20.6029 34.5237 22.6075C37.0573 24.6121 38.3241 27.321 38.3241 30.7343C38.3241 32.6848 37.9737 34.4456 37.2729 36.0168C36.5722 37.588 35.467 38.9966 33.9576 40.2428C32.5021 41.4347 31.1275 42.4099 29.8337 43.1684C28.5938 43.8727 26.9227 44.7397 24.8204 45.769C26.3837 47.9362 28.1626 50.1575 30.1572 52.4331C32.1517 54.8711 33.9307 56.957 35.494 58.6907C37.8659 54.9524 39.6449 51.1869 40.8308 47.3944L47.7849 50.5639C45.2512 56.1443 42.7445 60.6141 40.2648 63.9732C43.2297 67.1698 46.7337 70.7185 50.7767 74.6194ZM20.8582 68.7681C24.0926 68.7681 27.1923 67.4949 30.1572 64.9484C26.761 61.2642 24.5508 58.772 23.5266 57.4717C21.2625 54.7086 19.2679 52.108 17.5429 49.6699C13.4998 52.3247 11.4783 55.5754 11.4783 59.4222C11.4783 62.2937 12.3948 64.5692 14.2276 66.2487C16.0604 67.9283 18.2706 68.7681 20.8582 68.7681ZM18.9175 32.6035C18.9175 34.9332 19.807 37.6693 21.5859 40.8116C24.6048 39.403 26.8958 37.9672 28.4591 36.5044C30.0224 35.0416 30.8041 33.2537 30.8041 31.1407C30.8041 29.5153 30.2919 28.2421 29.2677 27.321C28.2435 26.4 26.9497 25.9395 25.3864 25.9395C23.5536 25.9395 22.0172 26.5625 20.7773 27.8087C19.5374 29.0548 18.9175 30.6531 18.9175 32.6035Z" fill="#FE66B8"/>
<path d="M24.8764 46.7575C22.7005 46.7575 20.9598 46.131 19.6543 44.878L21.2598 42.5907C22.2948 43.6309 23.5474 44.151 25.0176 44.151C25.5351 44.151 25.9409 44.0624 26.2349 43.8851C26.5407 43.6959 26.6936 43.4595 26.6936 43.1758C26.6936 42.9276 26.5289 42.7266 26.1996 42.573C25.8703 42.4075 25.4586 42.2893 24.9647 42.2183C24.4707 42.1356 23.9355 42.0115 23.3592 41.846C22.7829 41.6687 22.2477 41.4677 21.7537 41.2431C21.2598 41.0067 20.8481 40.6343 20.5188 40.126C20.1894 39.6177 20.0248 39.009 20.0248 38.2997C20.0248 37.2595 20.4423 36.3729 21.2774 35.64C22.1242 34.9071 23.271 34.5407 24.7177 34.5407C26.6348 34.5407 28.2285 35.0903 29.4987 36.1897L27.8404 38.3706C26.8524 37.555 25.7056 37.1472 24.4001 37.1472C23.5533 37.1472 23.1298 37.4309 23.1298 37.9983C23.1298 38.2229 23.2945 38.4179 23.6238 38.5834C23.9532 38.7371 24.3648 38.8553 24.8588 38.938C25.3528 39.0208 25.8821 39.1508 26.4466 39.3281C27.0229 39.4936 27.5581 39.6946 28.0521 39.931C28.5461 40.1674 28.9577 40.5338 29.287 41.0303C29.6164 41.5268 29.781 42.1178 29.781 42.8035C29.781 44.0092 29.3517 44.9726 28.4931 45.6937C27.6345 46.4029 26.429 46.7575 24.8764 46.7575ZM39.5981 46.5448H36.8811V45.5164C36.1519 46.3438 35.1698 46.7575 33.9348 46.7575C32.9939 46.7575 32.2882 46.5211 31.8178 46.0483C31.3591 45.5636 31.1297 44.9076 31.1297 44.0801V37.9805H33.8466V42.963C33.8466 43.8851 34.3171 44.3461 35.258 44.3461C35.9049 44.3461 36.4459 44.0683 36.8811 43.5127V37.9805H39.5981V46.5448ZM55.0139 46.5448H52.3146V41.3318C52.3146 40.5634 51.9382 40.1792 51.1855 40.1792C50.5739 40.1792 50.0623 40.457 49.6506 41.0126V46.5448H46.9337V41.3318C46.9337 40.5634 46.5573 40.1792 45.8046 40.1792C45.24 40.1792 44.7343 40.457 44.2873 41.0126V46.5448H41.5704V37.9805H44.2873V39.0267C44.5108 38.7312 44.8813 38.4475 45.3988 38.1756C45.9163 37.9037 46.4809 37.7678 47.0925 37.7678C48.351 37.7678 49.1566 38.2761 49.5095 39.2927C49.78 38.8789 50.1799 38.5243 50.7092 38.2288C51.2502 37.9214 51.8324 37.7678 52.4557 37.7678C53.2673 37.7678 53.8965 37.9864 54.3435 38.4238C54.7904 38.8494 55.0139 39.4877 55.0139 40.3388V46.5448ZM70.451 46.5448H67.7517V41.3318C67.7517 40.5634 67.3753 40.1792 66.6226 40.1792C66.011 40.1792 65.4994 40.457 65.0877 41.0126V46.5448H62.3708V41.3318C62.3708 40.5634 61.9944 40.1792 61.2417 40.1792C60.6771 40.1792 60.1714 40.457 59.7244 41.0126V46.5448H57.0075V37.9805H59.7244V39.0267C59.9479 38.7312 60.3184 38.4475 60.8359 38.1756C61.3534 37.9037 61.9179 37.7678 62.5296 37.7678C63.788 37.7678 64.5937 38.2761 64.9466 39.2927C65.2171 38.8789 65.617 38.5243 66.1462 38.2288C66.6873 37.9214 67.2695 37.7678 67.8928 37.7678C68.7044 37.7678 69.3336 37.9864 69.7806 38.4238C70.2275 38.8494 70.451 39.4877 70.451 40.3388V46.5448ZM80.1896 46.5448H77.4726V45.6937C77.2021 46.0128 76.8258 46.2729 76.3435 46.4738C75.8731 46.663 75.3673 46.7575 74.8263 46.7575C74.0853 46.7575 73.409 46.5152 72.7974 46.0306C72.1976 45.5341 71.8977 44.8367 71.8977 43.9383C71.8977 42.9926 72.1917 42.3011 72.7798 41.8637C73.3679 41.4145 74.05 41.1899 74.8263 41.1899C76.0613 41.1899 76.9434 41.5209 77.4726 42.1829V41.1544C77.4726 40.7762 77.3197 40.4747 77.0139 40.2501C76.7081 40.0255 76.2847 39.9133 75.7437 39.9133C74.8381 39.9133 74.0324 40.2147 73.3267 40.8176L72.3564 39.0976C73.3914 38.211 74.6793 37.7678 76.22 37.7678C76.7611 37.7678 77.2551 37.8269 77.702 37.9451C78.1607 38.0515 78.5782 38.2288 78.9546 38.477C79.3427 38.7253 79.6427 39.0799 79.8544 39.5409C80.0778 40.0019 80.1896 40.5516 80.1896 41.1899V46.5448ZM75.9554 44.9667C76.6846 44.9667 77.1904 44.7598 77.4726 44.3461V43.5836C77.1786 43.1817 76.6729 42.9808 75.9554 42.9808C75.5673 42.9808 75.2438 43.0694 74.9851 43.2467C74.7263 43.4122 74.5969 43.6546 74.5969 43.9737C74.5969 44.2929 74.7263 44.5411 74.9851 44.7184C75.2438 44.8839 75.5673 44.9667 75.9554 44.9667ZM84.8788 46.5448H82.1618V37.9805H84.8788V39.0267C85.1728 38.6721 85.5668 38.3706 86.0608 38.1224C86.5548 37.8741 87.0488 37.75 87.5428 37.75V40.3743C87.3311 40.327 87.1076 40.3033 86.8724 40.3033C86.496 40.3033 86.1079 40.3802 85.708 40.5338C85.3198 40.6757 85.0434 40.8589 84.8788 41.0835V46.5448ZM91.23 36.7571C90.936 37.0644 90.5714 37.2181 90.1362 37.2181C89.701 37.2181 89.3305 37.0644 89.0247 36.7571C88.7307 36.4497 88.5837 36.0774 88.5837 35.64C88.5837 35.2026 88.7307 34.8362 89.0247 34.5407C89.3305 34.2333 89.701 34.0796 90.1362 34.0796C90.5714 34.0796 90.936 34.2333 91.23 34.5407C91.5358 34.8362 91.6887 35.2026 91.6887 35.64C91.6887 36.0774 91.5358 36.4497 91.23 36.7571ZM91.4947 46.5448H88.7777V37.9805H91.4947V46.5448ZM100.327 46.5448H93.1464V44.5411L96.5691 40.3565H93.1464V37.9805H100.256V39.9133L96.7631 44.1865H100.327V46.5448ZM106.085 46.7575C104.744 46.7575 103.633 46.3497 102.751 45.5341C101.868 44.7066 101.427 43.6132 101.427 42.2538C101.427 40.989 101.851 39.9251 102.698 39.0621C103.556 38.1992 104.644 37.7678 105.961 37.7678C107.243 37.7678 108.29 38.2051 109.102 39.0799C109.913 39.9428 110.319 41.0953 110.319 42.5375V43.1226H104.25C104.332 43.5482 104.562 43.9087 104.938 44.2042C105.315 44.4998 105.797 44.6475 106.385 44.6475C106.714 44.6475 107.091 44.5825 107.514 44.4525C107.949 44.3106 108.278 44.1333 108.502 43.9205L109.649 45.6227C109.237 45.9892 108.708 46.2729 108.061 46.4738C107.426 46.663 106.767 46.7575 106.085 46.7575ZM107.726 41.3495C107.679 40.9712 107.514 40.6343 107.232 40.3388C106.949 40.0315 106.526 39.8778 105.961 39.8778C105.432 39.8778 105.026 40.0256 104.744 40.3211C104.462 40.6166 104.285 40.9594 104.215 41.3495H107.726ZM46.4797 68.1829C44.6566 68.1829 43.1394 67.6155 41.928 66.4807C40.7165 65.3341 40.1108 63.8624 40.1108 62.0656C40.1108 60.257 40.7106 58.7853 41.9103 57.6505C43.1218 56.5157 44.6449 55.9483 46.4797 55.9483C48.8438 55.9483 50.5551 57.0063 51.6136 59.1222L49.0025 60.3634C48.8026 59.8787 48.4674 59.4709 47.9969 59.1399C47.5382 58.8089 47.0325 58.6435 46.4797 58.6435C45.527 58.6435 44.739 58.9744 44.1156 59.6364C43.504 60.2866 43.1982 61.0963 43.1982 62.0656C43.1982 63.0349 43.504 63.8506 44.1156 64.5125C44.739 65.1627 45.527 65.4878 46.4797 65.4878C47.0325 65.4878 47.5382 65.3223 47.9969 64.9913C48.4674 64.6603 48.8026 64.2525 49.0025 63.7678L51.6136 65.009C51.1667 65.9074 50.5198 66.6639 49.673 67.2786C48.8379 67.8815 47.7735 68.1829 46.4797 68.1829ZM61.359 67.9701H58.642V62.9876C58.642 62.0656 58.1716 61.6046 57.2307 61.6046C56.5838 61.6046 56.0369 61.8824 55.5899 62.438V67.9701H52.873V56.1433H55.5899V60.4521C56.3074 59.6128 57.2895 59.1931 58.5362 59.1931C59.4771 59.1931 60.1828 59.4355 60.6533 59.9201C61.1237 60.3929 61.359 61.0431 61.359 61.8706V67.9701ZM67.4235 68.1829C66.0827 68.1829 64.9713 67.7751 64.0891 66.9595C63.207 66.132 62.766 65.0386 62.766 63.6792C62.766 62.4143 63.1894 61.3504 64.0362 60.4875C64.8948 59.6246 65.9827 59.1931 67.3 59.1931C68.5821 59.1931 69.6288 59.6305 70.4404 60.5053C71.2519 61.3682 71.6577 62.5207 71.6577 63.9629V64.548H65.5887C65.6711 64.9735 65.9004 65.3341 66.2768 65.6296C66.6532 65.9251 67.1354 66.0729 67.7235 66.0729C68.0528 66.0729 68.4292 66.0079 68.8526 65.8778C69.2878 65.736 69.6171 65.5587 69.8406 65.3459L70.9873 67.0481C70.5757 67.4146 70.0464 67.6983 69.3995 67.8992C68.7644 68.0884 68.1057 68.1829 67.4235 68.1829ZM69.0643 62.7749C69.0172 62.3966 68.8526 62.0597 68.5703 61.7642C68.288 61.4568 67.8646 61.3032 67.3 61.3032C66.7708 61.3032 66.365 61.4509 66.0827 61.7464C65.8004 62.042 65.624 62.3848 65.5535 62.7749H69.0643ZM77.0889 68.1829C75.7481 68.1829 74.6366 67.7692 73.7545 66.9417C72.8724 66.1024 72.4313 65.0149 72.4313 63.6792C72.4313 62.3552 72.8724 61.2795 73.7545 60.4521C74.6366 59.6128 75.7481 59.1931 77.0889 59.1931C77.9358 59.1931 78.6532 59.3468 79.2413 59.6541C79.8411 59.9615 80.2881 60.3338 80.5821 60.7712L78.8179 62.4202C78.4533 61.8765 77.9181 61.6046 77.2124 61.6046C76.6361 61.6046 76.1598 61.7937 75.7834 62.172C75.407 62.5384 75.2188 63.0408 75.2188 63.6792C75.2188 64.3175 75.407 64.8258 75.7834 65.2041C76.1598 65.5823 76.6361 65.7715 77.2124 65.7715C77.8946 65.7715 78.4297 65.4937 78.8179 64.9381L80.5821 66.6048C80.2881 67.0422 79.8411 67.4146 79.2413 67.7219C78.6532 68.0293 77.9358 68.1829 77.0889 68.1829ZM90.5677 67.9701H87.2157L85.3456 64.9381L84.534 65.9133V67.9701H81.8171V56.1433H84.534V62.8281L87.1274 59.4059H90.4089L87.2686 63.3068L90.5677 67.9701Z" fill="#3F3D56"/>
</svg>
